<?xml version="1.0" encoding="UTF-8"?>
<svg xmlns="http://www.w3.org/2000/svg" width="448" height="290" viewBox="0 0 448 290" fill="none">
  <g clip-path="url(#clip0_2605_290)">
    <path d="M436.663 97.9559C423.135 84.1573 347.639 103.841 341.203 116.885C337.811 123.765 348.933 141.516 370.259 162.146C388.86 180.129 406.891 196.72 418.216 193.067C429.541 189.415 450.229 111.754 436.663 97.9559Z" fill="#33CCA1"></path>
    <path d="M292.484 123.968C283.701 123.968 275.835 129.534 271.294 136.975V125.244H254.818V187.337H271.294V155.382C271.294 142.337 278.811 138.105 286.387 138.105C294.484 138.105 300.417 143.623 300.417 154.696C300.417 166.292 300.311 187.279 300.311 187.279H316.786L316.873 149.536C316.864 133.718 306.892 123.968 292.484 123.968Z" fill="#222426"></path>
    <path d="M167.175 99.8984H150.7V187.27H167.175V99.8984Z" fill="#222426"></path>
    <path d="M122.842 125.186L99.1003 150.783V99.8984H82.6348V187.27H99.1003L98.8491 162.021L122.397 187.125H142.989L114.174 156.146L142.989 125.186H122.842Z" fill="#222426"></path>
    <path d="M211.075 123.794C192.59 123.794 177.603 138.356 177.603 156.329C177.603 174.302 192.59 188.912 211.075 188.912C229.56 188.912 244.537 174.35 244.537 156.377C244.537 138.405 229.55 123.794 211.075 123.794ZM211.075 174.041C207.561 174.13 204.101 173.168 201.137 171.281C198.172 169.393 195.838 166.664 194.432 163.443C193.026 160.221 192.613 156.654 193.245 153.197C193.876 149.74 195.524 146.549 197.978 144.033C200.433 141.517 203.581 139.79 207.021 139.072C210.462 138.355 214.038 138.679 217.294 140.004C220.549 141.329 223.335 143.595 225.296 146.511C227.257 149.428 228.304 152.863 228.304 156.377C228.347 160.996 226.559 165.443 223.329 168.745C220.1 172.047 215.693 173.934 211.075 173.993V174.041Z" fill="#222426"></path>
    <path d="M51.5691 157.131C51.5691 170.176 44.0611 174.418 36.4757 174.418C28.3879 174.418 22.4259 168.891 22.4259 157.817C22.4259 146.222 22.5225 125.234 22.5225 125.234H6.08599L5.99902 162.977C5.99902 178.795 15.9711 188.545 30.3784 188.545C39.162 188.545 47.0276 182.979 51.5691 175.539V187.27H67.996V125.138H51.5691V157.131Z" fill="#222426"></path>
  </g>
  <defs>
    <clipPath id="clip0_2605_290">
      <rect width="435.119" height="100.339" fill="white" transform="translate(6 93.25)"></rect>
    </clipPath>
  </defs>
</svg>
